<svg width="36" height="29" viewBox="0 0 36 29" fill="none" xmlns="http://www.w3.org/2000/svg">
<path d="M16.3335 28.3333C15.4168 28.3333 14.6323 28.0072 13.9801 27.355C13.3279 26.7028 13.0012 25.9178 13.0001 25V21.6667C13.0001 20.75 13.3268 19.9656 13.9801 19.3133C14.6335 18.6611 15.4179 18.3344 16.3335 18.3333H19.6668C20.5835 18.3333 21.3685 18.66 22.0218 19.3133C22.6751 19.9667 23.0012 20.7511 23.0001 21.6667V25C23.0001 25.9167 22.674 26.7017 22.0218 27.355C21.3696 28.0083 20.5846 28.3344 19.6668 28.3333H16.3335ZM3.00012 15.6667C2.61123 15.9444 2.19456 16.0556 1.75012 16C1.30567 15.9444 0.944563 15.7222 0.666785 15.3333C0.389007 14.9444 0.285119 14.5278 0.355119 14.0833C0.425119 13.6389 0.640118 13.2778 1.00012 13L15.9585 1.54167C16.264 1.31944 16.5907 1.15278 16.9385 1.04167C17.2862 0.930555 17.6401 0.875 18.0001 0.875C18.3601 0.875 18.7146 0.930555 19.0635 1.04167C19.4123 1.15278 19.7385 1.31944 20.0418 1.54167L24.6668 5.08333V4.16667C24.6668 3.47222 24.9101 2.88222 25.3968 2.39667C25.8835 1.91111 26.4734 1.66778 27.1668 1.66667C27.8601 1.66556 28.4507 1.90889 28.9384 2.39667C29.4262 2.88444 29.669 3.47444 29.6668 4.16667V8.91667L35.0418 13C35.4029 13.2778 35.6112 13.6389 35.6668 14.0833C35.7223 14.5278 35.6112 14.9444 35.3335 15.3333C35.0557 15.7222 34.6946 15.9444 34.2501 16C33.8057 16.0556 33.389 15.9444 33.0001 15.6667L18.0001 4.20833L3.00012 15.6667Z" fill="white"/>
</svg>
