<svg width="28" height="34" viewBox="0 0 28 34" fill="none" xmlns="http://www.w3.org/2000/svg">
<path d="M7.33366 10.332H10.667V5.33203H7.33366V10.332ZM7.33366 25.332H10.667V16.9987H7.33366V25.332ZM4.00033 33.6654C3.08366 33.6654 2.29921 33.3393 1.64699 32.687C0.99477 32.0348 0.668103 31.2498 0.666992 30.332V15.332H27.3337V30.332C27.3337 31.2487 27.0075 32.0337 26.3553 32.687C25.7031 33.3404 24.9181 33.6665 24.0003 33.6654H4.00033ZM0.666992 11.9987V3.66536C0.666992 2.7487 0.993659 1.96425 1.64699 1.31203C2.30033 0.659809 3.08477 0.333142 4.00033 0.332031H24.0003C24.917 0.332031 25.702 0.658698 26.3553 1.31203C27.0087 1.96536 27.3348 2.74981 27.3337 3.66536V11.9987H0.666992Z" fill="white"/>
</svg>
