<svg width="30" height="38" viewBox="0 0 30 38" fill="none" xmlns="http://www.w3.org/2000/svg">
<path d="M0 37.3346V25.668C0 23.3624 0.812778 21.3974 2.43833 19.773C4.06389 18.1485 6.02889 17.3357 8.33333 17.3346H10V4.0013C10 3.08464 10.3267 2.30019 10.98 1.64797C11.6333 0.995747 12.4178 0.66908 13.3333 0.667969H16.6667C17.5833 0.667969 18.3683 0.994636 19.0217 1.64797C19.675 2.3013 20.0011 3.08575 20 4.0013V17.3346H21.6667C23.9722 17.3346 25.9378 18.1474 27.5633 19.773C29.1889 21.3985 30.0011 23.3635 30 25.668V37.3346H0ZM3.33333 34.0013H6.66667V29.0013C6.66667 28.5291 6.82667 28.1335 7.14667 27.8146C7.46667 27.4957 7.86222 27.3357 8.33333 27.3346C8.80444 27.3335 9.20056 27.4935 9.52167 27.8146C9.84278 28.1357 10.0022 28.5313 10 29.0013V34.0013H13.3333V29.0013C13.3333 28.5291 13.4933 28.1335 13.8133 27.8146C14.1333 27.4957 14.5289 27.3357 15 27.3346C15.4711 27.3335 15.8672 27.4935 16.1883 27.8146C16.5094 28.1357 16.6689 28.5313 16.6667 29.0013V34.0013H20V29.0013C20 28.5291 20.16 28.1335 20.48 27.8146C20.8 27.4957 21.1956 27.3357 21.6667 27.3346C22.1378 27.3335 22.5339 27.4935 22.855 27.8146C23.1761 28.1357 23.3356 28.5313 23.3333 29.0013V34.0013H26.6667V25.668C26.6667 24.2791 26.1806 23.0985 25.2083 22.1263C24.2361 21.1541 23.0556 20.668 21.6667 20.668H8.33333C6.94444 20.668 5.76389 21.1541 4.79167 22.1263C3.81944 23.0985 3.33333 24.2791 3.33333 25.668V34.0013Z" fill="white"/>
</svg>
