<svg width="30" height="30" viewBox="0 0 30 30" fill="none" xmlns="http://www.w3.org/2000/svg">
<path d="M2.69333 30C1.92556 30 1.285 29.7433 0.771667 29.23C0.258333 28.7167 0.00111111 28.0761 0 27.3083V2.69167C0 1.925 0.257222 1.285 0.771667 0.771667C1.28611 0.258333 1.92611 0.00111111 2.69167 0H27.3083C28.075 0 28.715 0.257222 29.2283 0.771667C29.7417 1.28611 29.9989 1.92667 30 2.69333V27.3083C30 28.075 29.7428 28.7156 29.2283 29.23C28.7139 29.7444 28.0739 30.0011 27.3083 30H2.69333ZM9.36 17.95C9.01556 17.95 8.71556 17.8222 8.46 17.5667C8.20444 17.3111 8.07667 17.0111 8.07667 16.6667C8.07667 16.3222 8.20444 16.0222 8.46 15.7667C8.71556 15.5111 9.01556 15.3833 9.36 15.3833C9.70444 15.3833 10.0039 15.5111 10.2583 15.7667C10.5128 16.0222 10.6406 16.3222 10.6417 16.6667C10.6428 17.0111 10.515 17.3111 10.2583 17.5667C10.0017 17.8222 9.70167 17.95 9.35833 17.95M20.6417 17.95C20.2972 17.95 19.9972 17.8222 19.7417 17.5667C19.4861 17.3111 19.3583 17.0111 19.3583 16.6667C19.3583 16.3222 19.4861 16.0222 19.7417 15.7667C19.9972 15.5111 20.2972 15.3833 20.6417 15.3833C20.9861 15.3833 21.2856 15.5111 21.54 15.7667C21.7944 16.0222 21.9222 16.3222 21.9233 16.6667C21.9244 17.0111 21.7967 17.3111 21.54 17.5667C21.2833 17.8222 20.9833 17.95 20.64 17.95M5.83333 24.1667C6.07111 24.1667 6.26944 24.0872 6.42833 23.9283C6.58722 23.7694 6.66667 23.5711 6.66667 23.3333V20.8333H23.3333V23.3333C23.3333 23.5711 23.4128 23.7694 23.5717 23.9283C23.7306 24.0872 23.9289 24.1667 24.1667 24.1667C24.4044 24.1667 24.6028 24.0872 24.7617 23.9283C24.9206 23.7694 25 23.5711 25 23.3333V14.2017C25 14.0506 24.9917 13.9006 24.975 13.7517C24.9572 13.6028 24.9206 13.4561 24.865 13.3117L22.8717 7.63333C22.6928 7.09444 22.3756 6.65944 21.92 6.32833C21.4644 5.99722 20.94 5.83167 20.3467 5.83167H9.65333C9.06 5.83167 8.53556 5.99722 8.08 6.32833C7.62444 6.65944 7.30722 7.09444 7.12833 7.63333L5.135 13.3083C5.07944 13.4539 5.04333 13.6011 5.02667 13.75C5.00889 13.8989 5 14.0489 5 14.2V23.3333C5 23.5711 5.07944 23.7694 5.23833 23.9283C5.39722 24.0872 5.59556 24.1667 5.83333 24.1667ZM7.17333 12.5L8.69167 8.17333C8.75611 7.96 8.87389 7.79444 9.045 7.67667C9.21611 7.55889 9.41889 7.5 9.65333 7.5H20.3467C20.5811 7.5 20.7839 7.55889 20.955 7.67667C21.1261 7.79444 21.2439 7.96 21.3083 8.17333L22.8267 12.5H7.17333Z" fill="white"/>
</svg>
