<svg width="34" height="34" viewBox="0 0 34 34" fill="none" xmlns="http://www.w3.org/2000/svg">
<path d="M16.9997 28.6654C16.9997 25.8876 16.0275 23.5265 14.083 21.582C12.1386 19.6376 9.77745 18.6654 6.99967 18.6654C6.99967 21.4431 7.9719 23.8043 9.91634 25.7487C11.8608 27.6931 14.2219 28.6654 16.9997 28.6654ZM16.9997 20.2487C17.7219 20.2487 18.333 19.9987 18.833 19.4987C19.333 18.9987 19.583 18.3876 19.583 17.6654V17.4154C19.8052 17.582 20.0341 17.707 20.2697 17.7904C20.5052 17.8737 20.7763 17.9154 21.083 17.9154C21.8052 17.9154 22.4163 17.6654 22.9163 17.1654C23.4163 16.6654 23.6663 16.0543 23.6663 15.332C23.6663 14.7765 23.5341 14.2904 23.2697 13.8737C23.0052 13.457 22.6375 13.1654 22.1663 12.9987C22.6386 12.832 23.0069 12.5404 23.2713 12.1237C23.5358 11.707 23.6675 11.2209 23.6663 10.6654C23.6663 9.94314 23.4163 9.33203 22.9163 8.83203C22.4163 8.33203 21.8052 8.08203 21.083 8.08203C20.7775 8.08203 20.5069 8.1237 20.2713 8.20703C20.0358 8.29036 19.8063 8.41536 19.583 8.58203V8.33203C19.583 7.60981 19.333 6.9987 18.833 6.4987C18.333 5.9987 17.7219 5.7487 16.9997 5.7487C16.2775 5.7487 15.6663 5.9987 15.1663 6.4987C14.6663 6.9987 14.4163 7.60981 14.4163 8.33203V8.58203C14.1941 8.41536 13.9652 8.29036 13.7297 8.20703C13.4941 8.1237 13.223 8.08203 12.9163 8.08203C12.1941 8.08203 11.583 8.33203 11.083 8.83203C10.583 9.33203 10.333 9.94314 10.333 10.6654C10.333 11.2209 10.4652 11.707 10.7297 12.1237C10.9941 12.5404 11.3619 12.832 11.833 12.9987C11.3608 13.1654 10.993 13.457 10.7297 13.8737C10.4663 14.2904 10.3341 14.7765 10.333 15.332C10.333 16.0543 10.583 16.6654 11.083 17.1654C11.583 17.6654 12.1941 17.9154 12.9163 17.9154C13.2219 17.9154 13.493 17.8737 13.7297 17.7904C13.9663 17.707 14.1952 17.582 14.4163 17.4154V17.6654C14.4163 18.3876 14.6663 18.9987 15.1663 19.4987C15.6663 19.9987 16.2775 20.2487 16.9997 20.2487ZM16.9997 15.582C16.2775 15.582 15.6663 15.3393 15.1663 14.8537C14.6663 14.3681 14.4163 13.7498 14.4163 12.9987C14.4163 12.2765 14.6663 11.6654 15.1663 11.1654C15.6663 10.6654 16.2775 10.4154 16.9997 10.4154C17.7219 10.4154 18.333 10.6654 18.833 11.1654C19.333 11.6654 19.583 12.2765 19.583 12.9987C19.583 13.7487 19.333 14.367 18.833 14.8537C18.333 15.3404 17.7219 15.5831 16.9997 15.582ZM16.9997 28.6654C19.7775 28.6654 22.1386 27.6931 24.083 25.7487C26.0275 23.8043 26.9997 21.4431 26.9997 18.6654C24.2219 18.6654 21.8608 19.6376 19.9163 21.582C17.9719 23.5265 16.9997 25.8876 16.9997 28.6654ZM3.66634 33.6654C2.74967 33.6654 1.96523 33.3393 1.31301 32.687C0.660786 32.0348 0.334119 31.2498 0.333008 30.332V3.66536C0.333008 2.7487 0.659675 1.96425 1.31301 1.31203C1.96634 0.659809 2.75079 0.333142 3.66634 0.332031H30.333C31.2497 0.332031 32.0347 0.658698 32.688 1.31203C33.3413 1.96536 33.6674 2.74981 33.6663 3.66536V30.332C33.6663 31.2487 33.3402 32.0337 32.688 32.687C32.0358 33.3404 31.2508 33.6665 30.333 33.6654H3.66634Z" fill="white"/>
</svg>
