<svg width="34" height="24" viewBox="0 0 34 24" fill="none" xmlns="http://www.w3.org/2000/svg">
<path d="M0.333008 23.6654V13.6654C0.333008 12.9154 0.485786 12.2348 0.791341 11.6237C1.0969 11.0126 1.49967 10.4709 1.99967 9.9987V5.33203C1.99967 3.94314 2.48579 2.76259 3.45801 1.79036C4.43023 0.818142 5.61079 0.332031 6.99967 0.332031H13.6663C14.3052 0.332031 14.9025 0.450364 15.458 0.687031C16.0136 0.923698 16.5275 1.24981 16.9997 1.66536C17.4719 1.2487 17.9858 0.922587 18.5413 0.687031C19.0969 0.451475 19.6941 0.333142 20.333 0.332031H26.9997C28.3886 0.332031 29.5691 0.818142 30.5413 1.79036C31.5136 2.76259 31.9997 3.94314 31.9997 5.33203V9.9987C32.4997 10.4709 32.9025 11.0126 33.208 11.6237C33.5136 12.2348 33.6663 12.9154 33.6663 13.6654V23.6654H30.333V20.332H3.66634V23.6654H0.333008ZM18.6663 8.66537H28.6663V5.33203C28.6663 4.85981 28.5063 4.46425 28.1863 4.14536C27.8663 3.82648 27.4708 3.66648 26.9997 3.66536H20.333C19.8608 3.66536 19.4652 3.82536 19.1463 4.14536C18.8275 4.46536 18.6675 4.86092 18.6663 5.33203V8.66537ZM5.33301 8.66537H15.333V5.33203C15.333 4.85981 15.173 4.46425 14.853 4.14536C14.533 3.82648 14.1375 3.66648 13.6663 3.66536H6.99967C6.52745 3.66536 6.1319 3.82536 5.81301 4.14536C5.49412 4.46536 5.33412 4.86092 5.33301 5.33203V8.66537Z" fill="white"/>
</svg>
