<svg width="38" height="28" viewBox="0 0 38 28" fill="none" xmlns="http://www.w3.org/2000/svg">
<path d="M5.66699 27.3346C4.2781 27.3346 3.09755 26.8485 2.12533 25.8763C1.1531 24.9041 0.666992 23.7235 0.666992 22.3346V14.0013C0.666992 13.0846 0.993659 12.3002 1.64699 11.648C2.30033 10.9957 3.08477 10.6691 4.00033 10.668C4.91588 10.6669 5.70088 10.9935 6.35533 11.648C7.00977 12.3024 7.33588 13.0869 7.33366 14.0013V20.668H30.667V14.0013C30.667 13.0846 30.9937 12.3002 31.647 11.648C32.3003 10.9957 33.0848 10.6691 34.0003 10.668C34.9159 10.6669 35.7009 10.9935 36.3553 11.648C37.0098 12.3024 37.3359 13.0869 37.3337 14.0013V22.3346C37.3337 23.7235 36.8475 24.9041 35.8753 25.8763C34.9031 26.8485 33.7225 27.3346 32.3337 27.3346H5.66699ZM10.667 17.3346V14.0013C10.667 12.5291 10.1881 11.2374 9.23033 10.1263C8.27255 9.01519 7.08477 8.2513 5.66699 7.83464V5.66797C5.66699 4.27908 6.1531 3.09852 7.12533 2.1263C8.09755 1.15408 9.2781 0.667969 10.667 0.667969H27.3337C28.7225 0.667969 29.9031 1.15408 30.8753 2.1263C31.8475 3.09852 32.3337 4.27908 32.3337 5.66797V7.83464C30.8614 8.14019 29.6603 8.86964 28.7303 10.023C27.8003 11.1763 27.3348 12.5024 27.3337 14.0013V17.3346H10.667Z" fill="white"/>
</svg>
