<svg width="32" height="38" viewBox="0 0 32 38" fill="none" xmlns="http://www.w3.org/2000/svg">
<path d="M9.50039 0.953125C8.36758 0.953125 6.53164 1.25703 5.0707 1.84063C4.34492 2.13203 3.71055 2.49453 3.29805 2.87578C3.16149 3.00137 3.04033 3.14272 2.93711 3.29688H16.0629C15.9691 3.15859 15.8598 3.01953 15.7035 2.87578C15.2895 2.49453 14.6566 2.13203 13.9301 1.84063C12.4691 1.25703 10.6332 0.953125 9.50039 0.953125ZM3.95352 4.70312V14.8516L9.50039 18.1797L15.0473 14.8516V4.70312H3.95352ZM17.0004 10.7969V12.2031H18.7973V13.2969H16.4535V14.7031H20.4613L22.7504 17L23.7504 16L21.0395 13.2969H20.2035V12.2031H22.0004V10.7969H17.0004ZM3.61367 16.2891L0.0566406 37.6328L1.44414 37.8672L2.80508 29.7031H16.1957L17.5551 37.8672L18.9457 37.6328L15.391 16.2891L14.0863 17.0703L15.1566 23.4609L9.50039 25.5234L3.8457 23.4688L4.91445 17.0703L3.61367 16.2891ZM24.1723 18.0391C24.1723 18.0391 23.3754 21.9141 24.5785 22.7031C25.3441 23.2031 26.8285 22.4766 27.0004 21.5C27.2973 19.9688 24.1723 18.0391 24.1723 18.0391ZM26.4535 24.7031C26.4535 24.7031 25.4066 26.9766 26.0004 27.7109C26.3832 28.1719 27.3598 28 27.6098 27.4297C28.016 26.5234 26.4535 24.7031 26.4535 24.7031ZM3.60898 24.8828L7.43008 26.2734L3.11602 27.8438L3.60898 24.8828ZM15.391 24.8828L15.8832 27.8438L11.5707 26.2734L15.391 24.8828ZM29.3754 25.4688C29.3754 25.4688 29.4848 27.9766 30.3441 28.3516C30.9066 28.5859 31.6879 27.9844 31.6566 27.3594C31.5941 26.375 29.3754 25.4688 29.3754 25.4688ZM9.50039 27.0234L13.0004 28.2969H6.00039L9.50039 27.0234ZM29.1645 30.1875C29.1645 30.1875 28.8988 31.8672 29.4301 32.2344C29.766 32.4609 30.3754 32.1562 30.4301 31.7422C30.5316 31.0703 29.1645 30.1875 29.1645 30.1875Z" fill="white"/>
</svg>
